<svg width="436" height="56" viewBox="0 0 436 56" fill="none" xmlns="http://www.w3.org/2000/svg">
<rect x="380.5" y="0.954102" width="55" height="55" rx="15" fill="#311F09"/>
<path d="M404.207 17.4629L415.198 28.4541L404.207 39.4453" stroke="white" stroke-width="1.5" stroke-linecap="round"/>
<rect width="55" height="55" rx="15" transform="matrix(-1 0 0 1 55.5 0.954102)" fill="#311F09"/>
<path d="M31.7932 17.4629L20.802 28.4541L31.7932 39.4453" stroke="white" stroke-width="1.5" stroke-linecap="round"/>
<rect opacity="0.1" width="55" height="55" rx="15" transform="matrix(-1 0 0 1 140.5 0.954102)" fill="#FF8A00"/>
<path d="M110.576 24.8541V22.7901H114.432V34.4541H112.128V24.8541H110.576Z" fill="#FF8A00"/>
<rect opacity="0.1" width="55" height="55" rx="15" transform="matrix(-1 0 0 1 210.5 0.954102)" fill="#FF8A00"/>
<path d="M179.552 31.9261C180.576 31.0728 181.392 30.3634 182 29.7981C182.608 29.2221 183.115 28.6248 183.52 28.0061C183.925 27.3874 184.128 26.7794 184.128 26.1821C184.128 25.6381 184 25.2114 183.744 24.9021C183.488 24.5928 183.093 24.4381 182.56 24.4381C182.027 24.4381 181.616 24.6194 181.328 24.9821C181.04 25.3341 180.891 25.8194 180.88 26.4381H178.704C178.747 25.1581 179.125 24.1874 179.84 23.5261C180.565 22.8648 181.483 22.5341 182.592 22.5341C183.808 22.5341 184.741 22.8594 185.392 23.5101C186.043 24.1501 186.368 24.9981 186.368 26.0541C186.368 26.8861 186.144 27.6808 185.696 28.4381C185.248 29.1954 184.736 29.8568 184.16 30.4221C183.584 30.9768 182.832 31.6488 181.904 32.4381H186.624V34.2941H178.72V32.6301L179.552 31.9261Z" fill="#FF8A00"/>
<rect opacity="0.1" width="55" height="55" rx="15" transform="matrix(-1 0 0 1 280.5 0.954102)" fill="#FF8A00"/>
<path d="M248.88 25.8621C248.933 24.7954 249.307 23.9741 250 23.3981C250.704 22.8114 251.627 22.5181 252.768 22.5181C253.547 22.5181 254.213 22.6568 254.768 22.9341C255.323 23.2008 255.739 23.5688 256.016 24.0381C256.304 24.4968 256.448 25.0194 256.448 25.6061C256.448 26.2781 256.272 26.8488 255.92 27.3181C255.579 27.7768 255.168 28.0861 254.688 28.2461V28.3101C255.307 28.5021 255.787 28.8434 256.128 29.3341C256.48 29.8248 256.656 30.4541 256.656 31.2221C256.656 31.8621 256.507 32.4328 256.208 32.9341C255.92 33.4354 255.488 33.8301 254.912 34.1181C254.347 34.3954 253.664 34.5341 252.864 34.5341C251.659 34.5341 250.677 34.2301 249.92 33.6221C249.163 33.0141 248.763 32.1181 248.72 30.9341H250.896C250.917 31.4568 251.093 31.8781 251.424 32.1981C251.765 32.5074 252.229 32.6621 252.816 32.6621C253.36 32.6621 253.776 32.5128 254.064 32.2141C254.363 31.9048 254.512 31.5101 254.512 31.0301C254.512 30.3901 254.309 29.9314 253.904 29.6541C253.499 29.3768 252.869 29.2381 252.016 29.2381H251.552V27.3981H252.016C253.531 27.3981 254.288 26.8914 254.288 25.8781C254.288 25.4194 254.149 25.0621 253.872 24.8061C253.605 24.5501 253.216 24.4221 252.704 24.4221C252.203 24.4221 251.813 24.5608 251.536 24.8381C251.269 25.1048 251.115 25.4461 251.072 25.8621H248.88Z" fill="#FF8A00"/>
<circle cx="314.329" cy="28.4541" r="2.5" fill="#B7A28B"/>
<circle cx="323" cy="28.4541" r="2.5" fill="#B7A28B"/>
<circle cx="331.671" cy="28.4541" r="2.5" fill="#B7A28B"/>
</svg>
