<svg width="30" height="30" viewBox="0 0 30 30" fill="none" xmlns="http://www.w3.org/2000/svg">
<rect opacity="0.2" width="30" height="30" rx="6.81818" fill="white"/>
<path d="M8.24805 13.4998H21.7497" stroke="white" stroke-width="1.5"/>
<path d="M11.249 8.24919L11.249 10.4992" stroke="white" stroke-width="1.5" stroke-linecap="round"/>
<path d="M19.5 8.2492L19.5 10.4992" stroke="white" stroke-width="1.5" stroke-linecap="round"/>
<rect opacity="0.2" width="30" height="30" rx="6.81818" fill="white"/>
<path d="M10.6801 9.74927H19.3175C20.6607 9.74927 21.7497 10.8382 21.7497 12.1815V19.3187C21.7497 20.662 20.6607 21.7509 19.3175 21.7509H10.6801C9.3368 21.7509 8.24786 20.662 8.24786 19.3187V12.1815C8.24786 10.8382 9.3368 9.74927 10.6801 9.74927Z" stroke="white" stroke-width="1.5"/>
<path d="M8.24835 13.4998H21.75" stroke="white" stroke-width="1.5"/>
<path d="M11.2491 8.24919L11.2491 10.4992" stroke="white" stroke-width="1.5" stroke-linecap="round"/>
<path d="M19.4999 8.24919L19.4999 10.4992" stroke="white" stroke-width="1.5" stroke-linecap="round"/>
</svg>
